<!--?xml version="1.0" encoding="UTF-8"?-->
    <!-- The Best Svg Icon site in the world: iconSvg.co, Visit us! https://iconsvg.co -->
    <svg id="svg" fill="#8800c7" stroke="#8800c7" width="16" height="16" version="1.1" viewBox="144 144 512 512" xmlns="http://www.w3.org/2000/svg" stroke-width="11">
    <g id="IconSvg_bgCarrier" stroke-width="0"></g>
    <g id="IconSvg_tracerCarrier" stroke-linecap="round" stroke-linejoin="round" stroke="#CCCCCC" stroke-width="0">
      <g xmlns="http://www.w3.org/2000/svg">
  <path d="m459.95 514.46c-39.648 9.0195-79.703 9.0195-119.15 0-2.7188-0.65625-5.3906 1.0586-6.0469 3.7773s1.0586 5.3906 3.7773 6.0469c20.453 4.6836 41.109 7.0039 61.766 7.0039s41.312-2.3164 61.867-7.0039c2.7188-0.60547 4.4336-3.3242 3.7773-6.0469-0.64844-2.7188-3.3203-4.4336-5.9883-3.7773z"></path>
  <path d="m280.64 549.58c14.762 0 26.801-11.992 26.801-26.801 0-14.762-11.992-26.754-26.801-26.754-14.812 0-26.754 11.992-26.754 26.754-0.046875 14.812 11.992 26.801 26.754 26.801zm0-43.477c9.2188 0 16.727 7.5078 16.727 16.676 0 9.2188-7.5078 16.727-16.727 16.727s-16.676-7.5078-16.676-16.727c-0.050781-9.168 7.457-16.676 16.676-16.676z"></path>
  <path d="m519.45 496.02c-14.762 0-26.801 11.992-26.801 26.754 0 14.762 11.992 26.801 26.801 26.801 14.812 0 26.801-11.992 26.801-26.801 0-14.711-12.039-26.754-26.801-26.754zm0 43.48c-9.2188 0-16.727-7.5078-16.727-16.727s7.5078-16.676 16.727-16.676 16.727 7.5078 16.727 16.676c0 9.2695-7.5078 16.727-16.727 16.727z"></path>
  <path d="m263.01 455.42c23.832 4.6836 73.809 10.125 136.58 10.176h0.050781 0.70703 0.050782c62.773-0.050781 112.8-5.4922 136.58-10.176 2.7188-0.55469 4.5352-3.1758 3.9805-5.8945-0.55469-2.7188-3.1758-4.5352-5.8945-3.9805-23.426 4.5859-72.852 9.9766-135.07 9.9766s-111.64-5.3906-135.07-9.9766c-2.7188-0.55469-5.3906 1.2578-5.8945 3.9805-0.55859 2.7188 1.2578 5.3906 3.9766 5.8945z"></path>
  <path d="m193.49 409.42h8.8164c8.3125 0 15.113-6.8008 15.113-15.113v-38.391c0-2.7695-2.2656-5.0391-5.0391-5.0391-2.7695 0-5.0391 2.2656-5.0391 5.0391v38.391c0 2.7695-2.2656 5.0391-5.0391 5.0391h-8.8125c-2.7695 0-5.0391-2.2656-5.0391-5.0391v-49.121c0-2.7695 2.2656-5.0391 5.0391-5.0391h36.074c-2.0156 38.641-2.7188 84.336-2.7188 135.93v130.04c0 2.7695 2.2656 5.0391 5.0391 5.0391l67.355-0.003907c2.7695 0 5.0391-2.2656 5.0391-5.0391l-0.003906-26.246h191.45v26.301c0 2.7695 2.2656 5.0391 5.0391 5.0391h67.41c2.7695 0 5.0391-2.2656 5.0391-5.0391l-0.003907-130.04c0-48.367-0.40234-95.07-2.418-135.93h35.77c2.7695 0 5.0391 2.2656 5.0391 5.0391v49.121c0 2.7695-2.2656 5.0391-5.0391 5.0391h-8.8164c-2.7695 0-5.0391-2.2656-5.0391-5.0391v-38.391c0-2.7695-2.2656-5.0391-5.0391-5.0391-2.7695 0-5.0391 2.2656-5.0391 5.0391v38.391c0 8.3125 6.8008 15.113 15.113 15.113h8.8164c8.3125 0 15.113-6.8008 15.113-15.113v-49.121c0-8.3125-6.8008-15.113-15.113-15.113h-36.324c-4.4844-77.234-15.516-131.19-42.371-131.19h-255.68c-25.34 0-37.082 47.914-42.066 131.19h-36.621c-8.3125 0-15.113 6.8008-15.113 15.113v49.121c-0.003906 8.3125 6.75 15.062 15.113 15.062zm78.695-200.46h255.68c35.266 0 35.266 180.41 35.266 267.17v125h-57.336v-26.301c0-2.7695-2.2656-5.0391-5.0391-5.0391h-201.52c-2.7695 0-5.0391 2.2656-5.0391 5.0391v26.301h-57.285v-125c0-79.957 0-267.17 35.27-267.17z"></path>
  <path d="m276.57 241.8h246.87c2.7695 0 5.0391-2.2656 5.0391-5.0391 0-2.7695-2.2656-5.0391-5.0391-5.0391h-246.87c-2.7695 0-5.0391 2.2656-5.0391 5.0391 0 2.7734 2.2656 5.0391 5.0391 5.0391z"></path>
 </g>

      </g>
     <g id="IconSvg_iconCarrier">
      <g xmlns="http://www.w3.org/2000/svg">
  <path d="m459.95 514.46c-39.648 9.0195-79.703 9.0195-119.15 0-2.7188-0.65625-5.3906 1.0586-6.0469 3.7773s1.0586 5.3906 3.7773 6.0469c20.453 4.6836 41.109 7.0039 61.766 7.0039s41.312-2.3164 61.867-7.0039c2.7188-0.60547 4.4336-3.3242 3.7773-6.0469-0.64844-2.7188-3.3203-4.4336-5.9883-3.7773z"></path>
  <path d="m280.64 549.58c14.762 0 26.801-11.992 26.801-26.801 0-14.762-11.992-26.754-26.801-26.754-14.812 0-26.754 11.992-26.754 26.754-0.046875 14.812 11.992 26.801 26.754 26.801zm0-43.477c9.2188 0 16.727 7.5078 16.727 16.676 0 9.2188-7.5078 16.727-16.727 16.727s-16.676-7.5078-16.676-16.727c-0.050781-9.168 7.457-16.676 16.676-16.676z"></path>
  <path d="m519.45 496.02c-14.762 0-26.801 11.992-26.801 26.754 0 14.762 11.992 26.801 26.801 26.801 14.812 0 26.801-11.992 26.801-26.801 0-14.711-12.039-26.754-26.801-26.754zm0 43.48c-9.2188 0-16.727-7.5078-16.727-16.727s7.5078-16.676 16.727-16.676 16.727 7.5078 16.727 16.676c0 9.2695-7.5078 16.727-16.727 16.727z"></path>
  <path d="m263.01 455.42c23.832 4.6836 73.809 10.125 136.58 10.176h0.050781 0.70703 0.050782c62.773-0.050781 112.8-5.4922 136.58-10.176 2.7188-0.55469 4.5352-3.1758 3.9805-5.8945-0.55469-2.7188-3.1758-4.5352-5.8945-3.9805-23.426 4.5859-72.852 9.9766-135.07 9.9766s-111.64-5.3906-135.07-9.9766c-2.7188-0.55469-5.3906 1.2578-5.8945 3.9805-0.55859 2.7188 1.2578 5.3906 3.9766 5.8945z"></path>
  <path d="m193.49 409.42h8.8164c8.3125 0 15.113-6.8008 15.113-15.113v-38.391c0-2.7695-2.2656-5.0391-5.0391-5.0391-2.7695 0-5.0391 2.2656-5.0391 5.0391v38.391c0 2.7695-2.2656 5.0391-5.0391 5.0391h-8.8125c-2.7695 0-5.0391-2.2656-5.0391-5.0391v-49.121c0-2.7695 2.2656-5.0391 5.0391-5.0391h36.074c-2.0156 38.641-2.7188 84.336-2.7188 135.93v130.04c0 2.7695 2.2656 5.0391 5.0391 5.0391l67.355-0.003907c2.7695 0 5.0391-2.2656 5.0391-5.0391l-0.003906-26.246h191.45v26.301c0 2.7695 2.2656 5.0391 5.0391 5.0391h67.41c2.7695 0 5.0391-2.2656 5.0391-5.0391l-0.003907-130.04c0-48.367-0.40234-95.07-2.418-135.93h35.77c2.7695 0 5.0391 2.2656 5.0391 5.0391v49.121c0 2.7695-2.2656 5.0391-5.0391 5.0391h-8.8164c-2.7695 0-5.0391-2.2656-5.0391-5.0391v-38.391c0-2.7695-2.2656-5.0391-5.0391-5.0391-2.7695 0-5.0391 2.2656-5.0391 5.0391v38.391c0 8.3125 6.8008 15.113 15.113 15.113h8.8164c8.3125 0 15.113-6.8008 15.113-15.113v-49.121c0-8.3125-6.8008-15.113-15.113-15.113h-36.324c-4.4844-77.234-15.516-131.19-42.371-131.19h-255.68c-25.34 0-37.082 47.914-42.066 131.19h-36.621c-8.3125 0-15.113 6.8008-15.113 15.113v49.121c-0.003906 8.3125 6.75 15.062 15.113 15.062zm78.695-200.46h255.68c35.266 0 35.266 180.41 35.266 267.17v125h-57.336v-26.301c0-2.7695-2.2656-5.0391-5.0391-5.0391h-201.52c-2.7695 0-5.0391 2.2656-5.0391 5.0391v26.301h-57.285v-125c0-79.957 0-267.17 35.27-267.17z"></path>
  <path d="m276.57 241.8h246.87c2.7695 0 5.0391-2.2656 5.0391-5.0391 0-2.7695-2.2656-5.0391-5.0391-5.0391h-246.87c-2.7695 0-5.0391 2.2656-5.0391 5.0391 0 2.7734 2.2656 5.0391 5.0391 5.0391z"></path>
 </g>

      </g>
      </svg>